Coordinates
version=1
nRows=60
nColumns=12
inDegrees=yes

Units are S.I. units (second, meters, Newtons, ...)
Angles are in degrees

endheader
time	SC_y	SC_z	SC_x	AC_y	AC_z	AC_x	GH_y	GH_z	GH_yy	EL_x	PS_y
       0.0              -29.28          21.12          78.95          54.75          6.741         -4.339          31.42           36.0          68.99          40.15          25.47
   0.03816              -29.28          21.12          78.95          54.75          6.739         -4.336          31.42          35.99          68.96          40.15          25.48
   0.07633              -29.28          21.12          78.94          54.75          6.736         -4.332          31.43          35.98          68.93          40.14          25.48
    0.1145              -29.28          21.12          78.94          54.74          6.733         -4.328          31.44          35.97           68.9          40.14          25.48
    0.1527              -29.29          21.11          78.94          54.74           6.73         -4.324          31.45          35.96          68.86          40.13          25.48
    0.1908              -29.29          21.11          78.94          54.74          6.727          -4.32          31.46          35.95          68.82          40.12          25.48
     0.229              -29.29           21.1          78.94          54.74          6.724         -4.315          31.48          35.94          68.78          40.12          25.48
    0.2671              -29.29           21.1          78.93          54.73           6.72          -4.31          31.49          35.93          68.73          40.11          25.49
    0.3053              -29.29          21.09          78.93          54.73          6.716         -4.305           31.5          35.92          68.68           40.1          25.49
    0.3435              -29.29          21.09          78.93          54.73          6.712         -4.299          31.52           35.9          68.63           40.1          25.49
    0.3816              -29.29          21.08          78.92          54.72          6.707         -4.293          31.53          35.89          68.58          40.09          25.49
    0.4198              -29.29          21.08          78.92          54.72          6.703         -4.286          31.55          35.87          68.52          40.08           25.5
     0.458              -29.29          21.07          78.92          54.71          6.697         -4.279          31.57          35.86          68.45          40.07           25.5
    0.4961              -29.29          21.07          78.91          54.71          6.692         -4.272          31.58          35.84          68.38          40.06           25.5
    0.5343               -29.3          21.06          78.91           54.7          6.686         -4.263          31.61          35.82          68.31          40.05           25.5
    0.5724               -29.3          21.05           78.9           54.7          6.679         -4.254          31.63           35.8          68.22          40.03          25.51
    0.6106               -29.3          21.04           78.9          54.69          6.672         -4.245          31.65          35.78          68.13          40.02          25.51
    0.6488               -29.3          21.03          78.89          54.69          6.664         -4.234          31.68          35.75          68.04           40.0          25.52
    0.6869               -29.3          21.02          78.89          54.68          6.655         -4.222          31.71          35.72          67.93          39.99          25.52
    0.7251              -29.31          21.01          78.88          54.67          6.646         -4.209          31.74          35.69          67.82          39.97          25.53
    0.7633              -29.31           21.0          78.87          54.66          6.635         -4.195          31.77          35.66          67.69          39.95          25.53
    0.8014              -29.31          20.98          78.86          54.66          6.624          -4.18          31.81          35.62          67.55          39.93          25.54
    0.8396              -29.31          20.97          78.86          54.65          6.611         -4.163          31.86          35.58          67.39          39.91          25.54
    0.8778              -29.32          20.95          78.85          54.63          6.598         -4.144           31.9          35.54          67.22          39.88          25.55
    0.9159              -29.32          20.93          78.83          54.62          6.582         -4.123          31.95          35.49          67.03          39.85          25.56
    0.9541              -29.33          20.91          78.82          54.61          6.565           -4.1          32.01          35.44          66.82          39.82          25.57
    0.9922              -29.33          20.89          78.81          54.59          6.545         -4.074          32.08          35.37          66.58          39.78          25.58
      1.03              -29.34          20.86          78.79          54.58          6.524         -4.044          32.15           35.3          66.31          39.74          25.59
     1.069              -29.34          20.84          78.77          54.56          6.499         -4.011          32.23          35.23          66.01          39.69           25.6
     1.107              -29.35           20.8          78.75          54.53          6.471         -3.973          32.33          35.14          65.67          39.64          25.62
     1.145              -29.36          20.76          78.73          54.51          6.439          -3.93          32.44          35.04          65.27          39.58          25.64
     1.183              -29.37          20.72          78.71          54.48          6.403          -3.88          32.56          34.92          64.82          39.51          25.66
     1.221              -29.38          20.67          78.68          54.44           6.36         -3.823           32.7          34.78           64.3          39.43          25.68
     1.259              -29.39          20.61          78.64          54.41          6.311         -3.757          32.87          34.63           63.7          39.34          25.71
     1.298               -29.4          20.54           78.6          54.36          6.254         -3.679          33.06          34.45          62.99          39.23          25.74
     1.336              -29.42          20.46          78.55           54.3          6.186         -3.587          33.29          34.23          62.16           39.1          25.77
     1.374              -29.44          20.37          78.49          54.24          6.106         -3.478          33.56          33.97          61.17          38.95          25.82
     1.412              -29.46          20.25          78.42          54.16          6.009         -3.348          33.89          33.67          59.98          38.77          25.87
      1.45              -29.49          20.11          78.34          54.07          5.892          -3.19          34.28          33.29          58.54          38.55          25.93
     1.488              -29.53          19.94          78.24          53.96           5.75         -2.997          34.76          32.84          56.79          38.28          26.01
     1.527              -29.57          19.73          78.11          53.82          5.574         -2.758          35.36          32.28          54.62          37.95           26.1
     1.565              -29.63          19.47          77.96          53.64          5.355         -2.461           36.1          31.58          51.92          37.54          26.22
     1.603               -29.7          19.14          77.76          53.42          5.078         -2.087          37.03           30.7          48.52          37.02          26.37
     1.641              -29.78          18.72          77.51          53.14          4.727         -1.612          38.21          29.58          44.19          36.35          26.56
     1.679              -29.89          18.19          77.19          52.78          4.277         -1.003          39.73          28.15          38.66          35.51           26.8
     1.717              -30.04           17.5          76.77          52.32            3.7        -0.2215          41.68          26.31          31.55          34.42          27.11
     1.756              -30.22          16.62          76.24          51.73          2.963         0.7765          44.17          23.96          22.48          33.03          27.51
     1.794              -30.45          15.51          75.58          50.98          2.036          2.031          47.29          21.01          11.07          31.28          28.01
     1.832              -30.73          14.17          74.77          50.08         0.9063          3.561          51.11          17.41         -2.835          29.15          28.61
      1.87              -31.06          12.61          73.84          49.03         -0.403          5.333          55.52          13.24         -18.95          26.69          29.32
     1.908              -31.41          10.92          72.82           47.9         -1.821          7.252          60.31           8.72          -36.4          24.01          30.08
     1.946              -31.76          9.225          71.81          46.76         -3.238          9.172          65.09          4.203         -53.86          21.34          30.84
     1.984              -32.09          7.664          70.87          45.72         -4.548          10.94          69.51        0.03173         -69.97          18.87          31.55
     2.023              -32.37          6.317          70.06          44.81         -5.677          12.47          73.32         -3.567         -83.88          16.75          32.15
     2.061               -32.6          5.212           69.4          44.07         -6.604          13.73          76.45          -6.52         -95.29           15.0          32.65
     2.099              -32.78          4.333          68.87          43.48         -7.341          14.73          78.94         -8.869         -104.4          13.61          33.05
     2.137              -32.92          3.644          68.46          43.02         -7.919          15.51          80.88         -10.71         -111.5          12.52          33.36
     2.175              -33.03          3.108          68.14          42.66         -8.368          16.12           82.4         -12.14         -117.0          11.67           33.6
     2.213              -33.12          2.689          67.89          42.38          -8.72          16.59          83.59         -13.26         -121.3          11.01          33.79
     2.252              -33.19           2.36          67.69          42.16         -8.996          16.97          84.52         -14.14         -124.7          10.49          33.94
